<svg id="Õ__1" data-name="Õº≤„_1" xmlns="http://www.w3.org/2000/svg" xmlns:xlink="http://www.w3.org/1999/xlink" viewBox="0 0 2312.28 870.08"><defs><style>.cls-1{fill:#fdba1d;}.cls-2{fill:#3f3f3f;}.cls-3{fill:#008ed3;}.cls-4{fill:url(#Dégradé_sans_nom_7);}</style><linearGradient id="Dégradé_sans_nom_7" x1="257.03" y1="218.96" x2="257.03" y2="780.52" gradientUnits="userSpaceOnUse"><stop offset="0" stop-color="#00a9f4"/><stop offset="1" stop-color="#006a99"/></linearGradient></defs><title>Plan de travail 1</title><path class="cls-1" d="M308.69,493.83c-4.82,6.66-7.26,15.51-7.26,26.3v38.26a133.19,133.19,0,0,1-.79,14.6,49.22,49.22,0,0,1-2.72,12,18.59,18.59,0,0,1-4.72,7.31,9.32,9.32,0,0,1-6.54,2.18h-5v23.61h5a9.32,9.32,0,0,1,6.53,2.18,18.59,18.59,0,0,1,4.72,7.31,49.21,49.21,0,0,1,2.72,12,133.26,133.26,0,0,1,.79,14.6v37.75c0,10.79,2.44,19.64,7.26,26.3h0c5.18,7.17,12.55,10.8,21.9,10.8h18.73V705.42H338.83a6.38,6.38,0,0,1-4-1.17,11.05,11.05,0,0,1-3.21-4,25.6,25.6,0,0,1-2.16-7.08,55.38,55.38,0,0,1-.75-9.18V648A63.9,63.9,0,0,0,326,628.36a57.82,57.82,0,0,0-6.34-13.78,38.78,38.78,0,0,0-7.13-8.42,38.74,38.74,0,0,0,7.13-8.42A57.84,57.84,0,0,0,326,584a63.87,63.87,0,0,0,2.72-19.66V528.09a53.15,53.15,0,0,1,.75-9,27.44,27.44,0,0,1,2.19-7.17,10.81,10.81,0,0,1,3.17-4.08,6.38,6.38,0,0,1,4-1.17h10.49V483H330.59C321.25,483,313.88,486.66,308.69,493.83Z"/><path class="cls-1" d="M2246.11,594.22a9.31,9.31,0,0,1-6.54-2.18,18.53,18.53,0,0,1-4.72-7.31,49.08,49.08,0,0,1-2.72-12,133.34,133.34,0,0,1-.79-14.6v-38c0-10.78-2.44-19.63-7.26-26.3h0c-5.19-7.17-12.56-10.8-21.9-10.8h-18.73v23.61h10.49a6.38,6.38,0,0,1,4,1.17,10.85,10.85,0,0,1,3.18,4.08,27.54,27.54,0,0,1,2.19,7.17,53,53,0,0,1,.75,9V564.3a63.86,63.86,0,0,0,2.72,19.65,57.86,57.86,0,0,0,6.34,13.78,38.69,38.69,0,0,0,7.13,8.42,38.73,38.73,0,0,0-7.13,8.42,57.87,57.87,0,0,0-6.34,13.78A63.89,63.89,0,0,0,2204,648v36a55.23,55.23,0,0,1-.75,9.18,25.66,25.66,0,0,1-2.15,7.08,11.06,11.06,0,0,1-3.21,4,6.38,6.38,0,0,1-4,1.17h-10.49V729h18.73c9.34,0,16.71-3.63,21.9-10.8,4.82-6.67,7.26-15.51,7.26-26.3v-38a133.39,133.39,0,0,1,.79-14.6,49.1,49.1,0,0,1,2.73-12,18.51,18.51,0,0,1,4.71-7.31,9.31,9.31,0,0,1,6.54-2.18h5V594.22Z"/><path class="cls-2" d="M461.3,593.36q19.68,0,34.52-10,15.87-11,15.88-28.31,0-17.95-11.74-28.31-11.39-10.36-30-10.36H414.69V729H377.41V482.9h95.28q34.52,0,55.58,20.37Q549,522.94,549,554.7q0,25.55-14.15,43.15Q521.7,614.08,500,620.29L556.58,729h-43.5L461.3,625.47Z"/><path class="cls-2" d="M586.56,729V483.24h37.28V729Z"/><path class="cls-2" d="M764.21,729h-29L654.44,483.24H693.1l56.61,178.82,56.61-178.82h39.35Z"/><path class="cls-2" d="M876.22,729V483.24H913.5V729Z"/><path class="cls-2" d="M943.18,729V483.24h157.07v33.49H980.47v71.8h102.18v33.14H980.47v73.88h119.79V729Z"/><path class="cls-2" d="M1213.63,593.36q19.68,0,34.52-10Q1264,572.31,1264,555q0-17.95-11.74-28.31-11.39-10.36-30-10.36H1167V729h-37.28V482.9H1225q34.52,0,55.58,20.37,20.71,19.68,20.71,51.44,0,25.55-14.15,43.15-13.12,16.23-34.87,22.44L1308.91,729h-43.5l-51.78-103.56Z"/><path class="cls-2" d="M1458.73,483.17,1549,729h-39.6l-11-31.68-6.2-17.56-47.52-141.18-38.22,109.16h44.08l11,32H1395L1378.16,729h-39.6l90.22-245.86Z"/><path class="cls-3" d="M1728.58,506.39q-23.17-23.16-63.27-23.16h-86.43V729h37.34V516.76h45.29q26.62,0,41.49,16.6,13.13,14.52,13.14,71.22,0,59.81-13.14,74.33-14.87,16.6-41.49,16.6h-17.29V729h21.09q40.1,0,63.27-23.16,17.63-17.28,22.47-47.36,2.41-14.86,2.42-53.93,0-38.38-2.42-52.55Q1746.2,524,1728.58,506.39Z"/><polygon class="cls-3" points="2113.28 482.88 2056.58 661.96 1999.88 482.88 1981.54 482.88 1961.16 482.88 1783.12 482.88 1783.12 729.03 1940.42 729.03 1940.42 695.5 1820.46 695.5 1820.46 621.51 1922.79 621.51 1922.79 588.32 1820.46 588.32 1820.46 516.41 1972.18 516.41 2042.06 729.03 2071.1 729.03 2152.69 482.88 2113.28 482.88"/><path class="cls-4" d="M451.89,209.12a9.88,9.88,0,0,0-.49-1.78c-.31-.84-.65-1.61-1-2.35-.67-1.47-1.37-2.87-2-4.18-1.33-2.65-2.81-5.38-4.38-8.12a182.43,182.43,0,0,0-10-15.47,169.55,169.55,0,0,0-11.57-14.38,136,136,0,0,0-13.31-12.88,107.86,107.86,0,0,0-15.24-10.77,89.26,89.26,0,0,0-17.12-7.74,82.3,82.3,0,0,0-9.17-2.44l-2.21-.43-2.34-.37c-.54-.09-1.08-.15-1.62-.21l-.73-.09c-.84-.11-1.66-.18-2.41-.24a82.84,82.84,0,0,0-18.87.62c-3,.45-6.12,1.07-9.22,1.84-1.66.43-3.36.91-5.07,1.45-.63-2-1.38-4.11-2.26-6.35-1.28-3.22-2.77-6.5-4.45-9.75s-3.44-6.3-5.33-9.26c-.88-1.39-1.86-2.85-3-4.48l-1.56-2.16-1.6-2.11c-2.2-2.81-4.55-5.54-7-8.11A102.8,102.8,0,0,0,292.15,82c-2.71-2.31-5.57-4.51-8.52-6.56s-6-3.91-9.18-5.62a106.28,106.28,0,0,0-9.64-4.58c-.66-.29-1.33-.55-2-.81l-.55-.21-.81-.31c-.57-.22-1.14-.44-1.73-.64l-1.31-.45c-1.22-.42-2.48-.85-3.74-1.2l-.85-.25-1.75-.51-3.78-1-4-.87c-1.84-.35-3.54-.65-5.28-.94l-2.55-.36c-.81-.12-1.78-.25-2.73-.34l-1.29-.13c-1.31-.14-2.66-.28-4-.35l-2.59-.17c-.6,0-1.19-.06-1.79-.07l-.92,0-2.65-.08-5.25,0-5.3.2-5.28.37-5.6.57-.38,0-.27,0a6.3,6.3,0,0,0-1.55.52,6.39,6.39,0,0,0-3.56,5,6.28,6.28,0,0,0,0,.77v.2a5.14,5.14,0,0,0,.05.59,6.19,6.19,0,0,0,.42,1.58c.93,2.29,3.8,3.53,4.37,3.75h0l.36.12c.93.31,1.9.7,3.09,1.18s2.41,1,3.59,1.53c2.32,1,4.72,2.16,7.15,3.36,2.16,1.07,4.47,2.26,7,3.64s4.79,2.67,6.94,3.94c.74.42,1.47.87,2.19,1.32l1.18.73c1.11.67,2.22,1.39,3.31,2.1l.13.08c1.09.7,2.11,1.37,3.13,2.08l1.2.82c.69.47,1.37.93,2,1.43l3.2,2.32.62.47c.84.63,1.69,1.27,2.54,1.95,1.82,1.41,3.74,3,6.06,5,1.81,1.57,3.7,3.31,5.76,5.32,1.73,1.68,3.49,3.53,5.39,5.64,1.73,1.92,3.39,3.93,4.95,6s3.08,4.21,4.43,6.33a72.87,72.87,0,0,1,6.82,13.67q.5,1.35.94,2.72-2-1.88-4.16-3.71c-5-4.26-9.72-7.95-14.45-11.26a168.14,168.14,0,0,0-15.61-9.74c-2.42-1.3-5.28-2.81-8.19-4.15s-5.71-2.57-8.47-3.63c-.74-.29-1.48-.58-2.21-.84l-.49-.18c-.57-.21-1.14-.42-1.69-.6l-6.55-2.06-4.47-1.16c-.54-.15-1.09-.26-1.64-.37l-.73-.15A104.37,104.37,0,0,0,193,101.75a95.08,95.08,0,0,0-18.65,1.14,99.22,99.22,0,0,0-18,4.67c-1.17.39-2.28.84-3.35,1.28l-1.06.43-.69.28c-.51.2-1,.41-1.51.64l-4.1,1.89-2.18,1.14-1.37.72c-.9.47-1.79.93-2.74,1.48l-1.68,1c-2,1.22-4.16,2.47-6.12,3.86l-2.8,1.89-5.56,4.16-5.33,4.4-1,.86-1.54,1.4c-1.72,1.55-3.5,3.16-5.15,4.85l-1.13,1.12c-.7.69-1.41,1.38-2.15,2.14L102.32,146c-.36.39-.7.78-1,1.19l-3.43,4c-.75.83-1.42,1.68-2.08,2.5l-.89,1.11L92,158.28l-1.37,1.81c-1.38,1.83-2.77,3.66-4.15,5.57l-2.6,3.7-.8,1.13c-.61.85-1.23,1.74-1.8,2.63l-2.89,4.39c-.69,1-1.41,2.14-2.07,3.23l-2.58,4.18c-.72,1.16-1.47,2.37-2.15,3.57l-2.73,4.69c-.6,1-1.23,2.1-1.8,3.17l-3.74,6.81a13.35,13.35,0,0,0-.72,1.4c-.08.18-.15.36-.24.64,0,.09-.05.17-.11.37l-.06.26h0c0,.18-.08.42-.1.63a5.72,5.72,0,0,0,0,.63v.19a6.55,6.55,0,0,0,.65,2.7,6.48,6.48,0,0,0,9.7,2.35,6.56,6.56,0,0,0,1.83-2.14l.43-.82a56.07,56.07,0,0,1,3.87-5q2.21-2.58,4.57-4.94c.53-.55,1.08-1.08,1.63-1.6l1.35-1.28c.61-.57,1.22-1.14,1.84-1.68l.67-.58c.62-.54,1.23-1.08,1.9-1.62l2.62-2.12,2.72-2.07c.81-.62,1.66-1.2,2.55-1.82l.13-.09.55-.38c.26-.18.52-.37.82-.55l1.5-1c.74-.5,1.51-1,2.32-1.45l.53-.32c.89-.55,1.82-1.07,2.87-1.65l1.46-.82,1.52-.78c1.9-1,3.87-1.91,6-2.86l3.14-1.32c.66-.26,1.33-.51,2-.76l1.22-.46c.84-.33,1.71-.61,2.64-.91l.42-.13,1.06-.34c.72-.24,1.41-.46,2.14-.65l3.26-.9c.7-.17,1.4-.33,2.11-.49l2.81-.64,2.85-.5,2.09-.36,4-.51.93-.11,5.1-.39,3.46-.09c1.51-.07,3,0,4.66,0l2.1.05c.64,0,1.33.06,2.05.12l1.15.09,3.09.24a14.81,14.81,0,0,0,1.94.35l2,.22q1.8.2,3.55.45c1.22.18,2.37.35,3.58.58,1.05.18,2.1.4,3.14.61l.35.07c.91.19,1.82.41,2.73.62l.76.18,1.28.33c.73.19,1.47.38,2.17.58l1.26.36c.74.21,1.48.42,2.21.65l1.24.39,2.21.71,3.41,1.19,3.5,1.32c.71.26,1.41.55,2.11.84l1.21.5c1.06.43,2.2.9,3.31,1.41l3.31,1.47.3.14a85.92,85.92,0,0,0-11.05,4.44,105,105,0,0,0-9.94,5.53l-.09.06-1.26.83c-1.13.74-2.29,1.51-3.41,2.34l-.75.54c-.53.37-1.05.75-1.55,1.14l-2.13,1.65c-.63.47-1.2,1-1.76,1.43l-1.25,1.06c-.48.4-1,.8-1.49,1.28l-5,4.66-4.91,5.09-.07.07c-.42.46-.82.93-1.22,1.4l-.6.69a151.76,151.76,0,0,0-13.55,18l-3,4.69c-.63,1-1.23,2.09-1.83,3.14l-1,1.68-1.36,2.37c-.32.56-.62,1.13-.92,1.71l-.44.84-2.55,4.9c-.55,1.08-1.07,2.18-1.58,3.28l-.84,1.78-.72,1.52c-.55,1.16-1.12,2.35-1.62,3.57L137,264c-1.08,2.5-2.19,5.08-3.15,7.67l-2,5.11-2.77,7.86-2.57,7.93c-2,6.34-3.89,13.11-5.95,21.24-.35,1.29-.64,2.58-.93,3.82-.12.54-.25,1.07-.38,1.63L117.73,326a6.56,6.56,0,0,0,.15,3.45,6.63,6.63,0,0,0,5,4.49,6.51,6.51,0,0,0,1.78.1c.19,0,.45,0,.7-.09l.22,0a6.4,6.4,0,0,0,.78-.22,6.83,6.83,0,0,0,2.78-1.87,17,17,0,0,0,1.57-2.11l.39-.59c3.83-5.78,7.94-11.93,12.26-18,4.48-6.27,8.76-11.91,13.07-17.25,4.87-6,9.5-11.35,14.15-16.27a191.08,191.08,0,0,1,15.5-14.76,108.44,108.44,0,0,1,17.23-12.1,64,64,0,0,1,9.37-4.28c1.62-.6,3.32-1.08,4.78-1.46a41.88,41.88,0,0,1,4.84-.88l.15,0c.46-.07,1-.1,1.52-.14l.83-.06.75,0c.57,0,1.1,0,1.58,0h.14a30.05,30.05,0,0,1,4.82.48,23.75,23.75,0,0,1,2.38.52L233,246.61c-4.89,5.57-12.29,14-21.1,24.92A383,383,0,0,0,182,313.42a309.54,309.54,0,0,0-22.12,43.71c-2.11,5.08-45,109.06-37.4,229.07.47,7.34,1.83,46.93,18.6,122.08,1.33,6,3.79,12,5.35,18.23h46.23s0-.06,0-.09a11.3,11.3,0,0,0-.3-1.3c-.11-.39-.16-.55-.22-.72l-6.33-19.33c-2.36-7.29-4.78-15-7.2-22.87-5.13-16.76-46.68-179.12-5.22-310,1.74-5.14,3.73-10.48,6.09-16.32,1.83-4.54,4-9.38,6.71-15.19,2.36-4.9,4.79-9.63,7.25-14.11.36-.69.76-1.39,1.16-2.08l.68-1.21.38-.66c.49-.87,1-1.74,1.5-2.6l3.8-6.32a419.69,419.69,0,0,1,29.18-41c7.77-9.76,14.32-17.47,19.1-23.1l1.71-2,.95-1.14a7,7,0,0,0,1.41-4,5.37,5.37,0,0,0-1.76-3.83,18.25,18.25,0,0,0-4.07-2.87v0c-.21-.11-2-1.06-3-1.46a43.92,43.92,0,0,0-10.23-3.09,45.43,45.43,0,0,0-10.69-.54,54,54,0,0,0-10.49,1.78l-2.44.72c-.54.17-1.08.36-1.61.55l-.75.26c-.6.2-1.15.41-1.7.63l-.76.3c-.53.21-1.07.44-1.61.67l-.83.36a86,86,0,0,0-9.08,4.74A126.55,126.55,0,0,0,178,252.37c-2.63,2.21-5.15,4.44-7.47,6.64s-4.74,4.57-7.08,7c-2.18,2.25-4.39,4.62-6.76,7.25-.71.79-1.4,1.58-2.1,2.38l-4.4,5.13L147,284.56l-3.07,3.84c-1.45,1.85-2.74,3.51-3.92,5.06l1.21-3.77,2.57-7.31c.27-.76.56-1.51.85-2.26l.49-1.29.5-1.31c.73-1.91,1.49-3.9,2.32-5.8l.79-1.88c.74-1.78,1.45-3.46,2.25-5.14l.87-1.89c.79-1.74,1.54-3.38,2.4-5l.78-1.55c.91-1.81,1.76-3.52,2.74-5.24l1.88-3.42c.35-.66.76-1.32,1.18-2l.72-1.19,2-3.27,2.07-3.15.78-1.18c.43-.66.86-1.31,1.31-1.94l3.42-4.72c.21-.29.43-.56.65-.84l.44-.56,2.46-3.09c.47-.62,1-1.23,1.58-1.87l.78-.89,2.51-2.85a121.81,121.81,0,0,1,10.91-10.32,94.28,94.28,0,0,1,12.19-8.6,78.93,78.93,0,0,1,13.43-6.3c2.12-.77,4.44-1.47,7-2.13,2.4-.58,4.84-1,7.24-1.36l2-.26a14.66,14.66,0,0,0,2.44-.49,6.48,6.48,0,0,0,3.67-2.64,6.34,6.34,0,0,0,.93-2.29,4.52,4.52,0,0,0,.09-.53c0-.16,0-.32,0-.48a6.7,6.7,0,0,0-.07-1.28,6.46,6.46,0,0,0-2.44-4.11l-.08-.06c-.16-.12-.32-.23-.45-.3l-5-2.77c-78.55-44.93-129.79-6.54-129.79-6.54l-1.42.81-.89.51c-.47.27-.94.53-1.4.81,1.93-2.64,3.87-5.19,5.81-7.62,3.07-3.89,6.45-7.81,10-11.65s7.28-7.47,10.94-10.72a119.5,119.5,0,0,1,24.88-17.3,89.25,89.25,0,0,1,28.43-9.11l1.41-.17c.8-.1,1.59-.19,2.35-.26l2.87-.22.49,0,4.36-.11c.35,0,.75,0,1.18,0l4.31.15,1.09.1.68.06,1.43.13c.79.07,1.57.14,2.3.24l3.92.59c.54.07,1.12.19,1.68.31l1.89.39a102,102,0,0,1,14.53,4.17,130.06,130.06,0,0,1,13.94,6.08,155.64,155.64,0,0,1,25.63,16.64c4.14,3.29,8,6.67,11.6,10.06,1.74,1.64,3.51,3.4,5.42,5.38,1.64,1.72,3.36,3.56,4.83,5.4a6.33,6.33,0,0,0,3.06,2.52,6.18,6.18,0,0,0,1.11.32,6,6,0,0,0,.63.09l.39,0a6.2,6.2,0,0,0,1.19-.08,6.09,6.09,0,0,0,1-.26,6.35,6.35,0,0,0,4.19-4.74,7.69,7.69,0,0,0,.13-.85,5.58,5.58,0,0,0,0-1l-.11-4a20,20,0,0,0-.14-2.08l-.35-3.37-.91-5.39c-.1-.51-.23-1-.36-1.52-.06-.21-.11-.43-.17-.68l-.79-3.11c-.07-.26-.16-.52-.25-.78L291.21,135l-2-5-2.35-4.84-2.17-3.83c-.36-.64-.73-1.29-1.14-1.9l-2.28-3.51c-.54-.81-1.1-1.57-1.65-2.3l-.86-1.17-1.23-1.67L276.06,109l-.91-1.11c-.58-.72-1.17-1.43-1.83-2.19l-1.41-1.55c-1.39-1.54-2.83-3.13-4.36-4.6l-1-1c-.64-.65-1.31-1.32-2-2l-3-2.74c-.92-.87-1.87-1.66-2.79-2.43L255,88.35l-3.39-2.62c-1.09-.84-2.22-1.72-3.34-2.51-2-1.45-4.17-3-6.91-4.8-4.61-3-9.43-6-14.34-8.69l-.29-.16,5.49.49,4.26.57c2.71.44,5.58.93,8.4,1.63l.81.18c.42.09.84.19,1.22.29l4.22,1.18c.41.12.81.26,1.21.39l.74.25,1.16.39c1,.33,1.92.64,2.87,1l2.08.82c.59.22,1.22.47,1.83.76l1.46.66c.83.37,1.66.74,2.42,1.12l3.85,2,3.69,2.16c.76.48,1.51,1,2.27,1.47l1.3.85c2.73,1.9,4.87,3.53,6.79,5.15l3.23,2.78c.33.3.65.61,1,.91l2.09,2c1.87,1.86,3.75,3.92,5.74,6.3,1.86,2.23,3.6,4.51,5.18,6.79a103,103,0,0,1,8.57,14.8c1.24,2.63,2.34,5.28,3.28,7.87.47,1.29.91,2.64,1.31,4,.06.2.15.63.27,1.16,1,4.45,1.47,6,2.47,7a6.45,6.45,0,0,0,5.49,1.84,6.57,6.57,0,0,0,1.36-.35l3.8-1.39.66-.21c1.22-.39,2.43-.78,3.57-1.12l2.28-.61c.64-.17,1.37-.37,2.09-.51l1-.23c1.16-.25,2.25-.49,3.4-.65l2.23-.37,2.31-.26c1-.14,2.1-.2,3.23-.27l1.27-.08c.43,0,.92,0,1.43,0l2.9,0a70.69,70.69,0,0,1,8.81.78l.88.14c.44.06.87.13,1.29.21l3.34.7,3.26.87c.44.12.87.27,1.3.41l.76.25.85.28c.4.13.8.25,1.25.43l2.58,1,.54.21,3.18,1.41c.37.17.77.38,1.16.58l.77.4L385,149l.67.35a13,13,0,0,1,1.14.63l4,2.44c.78.5,1.55,1,2.37,1.61l1.44,1c1,.64,1.9,1.37,2.89,2.15l2.53,2c.33.25.64.53,1,.81l.65.56,2.25,2c.37.32.74.64,1.13,1l3.34,3.21c.67.69,1.34,1.39,2,2.09l1.17,1.23,3,3.37.58.66c.3.34.61.68.9,1l2.93,3.6,1.87,2.44c.79,1,1.54,2,2.25,3l.77,1.08c.66.91,1.28,1.78,1.87,2.69l.73,1.09.28.41q-3.18-1.84-6.36-3.51c-3.91-2.09-7.92-3.93-11-5.32-3.34-1.42-7.29-3-11.32-4.4s-8-2.54-11.78-3.54-7.8-1.83-11.95-2.45c-3.8-.63-7.9-1.09-12.19-1.38a119.26,119.26,0,0,0-12.32-.19A120.5,120.5,0,0,0,325.44,172l-5,1.25a7,7,0,0,0-1.67.61,6.64,6.64,0,0,0,.95,12.18c4.13,1.37,7.59,2.56,11.08,3.9a195.79,195.79,0,0,1,21.35,9.45c1.23.62,2.43,1.28,3.69,2l3.89,2.21,2.49,1.5c3,1.83,6.15,3.94,9.57,6.45a110.24,110.24,0,0,1,8.9,7.28c1.23,1.09,2.4,2.24,3.64,3.45l.84.85c1.23,1.28,2.39,2.5,3.51,3.8a92.37,92.37,0,0,1,6.91,8.92l.84,1.43.06.75.7.83c.12.15,12.36,15,12.37,45.33v.27a43.32,43.32,0,0,1,0,5.07v.38a129.7,129.7,0,0,1-3.41,22.76,173.53,173.53,0,0,1-6.94,22.16c-1.83,4.74-3.92,9.6-6.26,14.5a124.62,124.62,0,0,0,1.2-15.33,104.66,104.66,0,0,0-2.23-23.62l-.62-2.83c-.15-.66-.33-1.31-.51-2-.09-.31-.17-.62-.27-1s-.17-.61-.25-.91c-.17-.64-.35-1.31-.57-2l-1-3.21c-.1-.32-.21-.65-.36-1.07l-1.53-4c-.24-.63-.52-1.26-.8-1.89l-.42-.95-.4-.89c-.27-.62-.54-1.24-.83-1.81a105.7,105.7,0,0,0-12.62-20c-2.2-2.77-4.69-5.58-7.88-8.88-2.8-2.81-5.72-5.49-8.7-8a121.86,121.86,0,0,0-19.51-13.3c-1.65-.88-3.42-1.82-5.37-2.7-.5-.22-1-.46-1.69-.67a9.16,9.16,0,0,0-2.34-.51,6.32,6.32,0,0,0-3.93,1l-.18.13-.46.35-.22.2-.37.35-.64.76a6.82,6.82,0,0,0-.47.76,6.66,6.66,0,0,0-.38,5.39l1.22,3.33c.2.55.4,1.09.6,1.64.46,1.24.89,2.41,1.26,3.63l1.71,5.34,1.51,5.47c.24.82.44,1.69.63,2.56l.63,2.73c.08.35.16.69.24,1,.13.53.25,1.07.35,1.62l.51,2.79a124.27,124.27,0,0,1,2.06,22,102,102,0,0,1-2.37,21.79,95.77,95.77,0,0,1-7.12,20.65l-.45,1c-.24.51-.47,1-.68,1.41L318.3,342l-.62,1.12c-.69,1.27-1.35,2.46-2.08,3.54l-2,3.06c-.35.55-.68,1.07-1.08,1.59l-3.31,4.54c-4.39,5.61-9.47,11.94-15.11,17-5.36,4.77-11.31,8.34-17.74,12.5-1,.66-2,1.27-3.05,1.92l-1.21.73c4.18-6.53,38.47-54.55,8.9-117.21-1.34-3-2.9-6-4.65-9.07l-.32-.55c-.32-.55-.64-1.1-1-1.63l-.1-.16c-.2-.32-.4-.64-.64-1l-.13-.2a8.84,8.84,0,0,0-.91-1.24,6.51,6.51,0,0,0-5.71-2.07l-.15,0a6.88,6.88,0,0,0-5,3.74c-.53,1.06-1.2,3.3-.37,4.94a5.42,5.42,0,0,0,.61,1c.93,1.27,2.69,4.33,3.28,5.38C304.25,339.58,249.43,396.63,247.3,399l-1.9,2.08-.54.59c-.14.16-.21.24-.36.43a6.72,6.72,0,0,0-.52.79,6.49,6.49,0,0,0,4.65,9.6,6.29,6.29,0,0,0,.94.08h.11l.43,0h.1a3.29,3.29,0,0,0,.4,0l1.09-.27.76-.24.11,0c2.06-.69,4-1.46,5.55-2.13,1.79-.75,3.58-1.54,5.32-2.36,3.45-1.61,6.92-3.39,10.32-5.28s6.81-3.94,9.91-6,6.09-4.09,9.51-6.64a148.05,148.05,0,0,0,17.41-15.4,128.2,128.2,0,0,0,14.6-18.2c1.19-1.82,2.17-3.38,3.11-5.05L331,346l2.52-5.23c.36-.71.64-1.41.89-2,.11-.27.21-.54.35-.85l1.09-2.69A110.62,110.62,0,0,0,342,312.56l.61-4.23c.05-.37.08-.74.11-1.12l0-.5c.05-.67.11-1.33.17-2,.11-1.24.22-2.48.3-3.72l.16-5.74c0-.62,0-1.21,0-1.67l-.12-4.32a149,149,0,0,0-2.94-23.08c-.89-4.08-1.94-8.17-3.17-12.38a111.79,111.79,0,0,1,13.75,10.79,98.71,98.71,0,0,1,17.4,21.09c1.39,2.3,2.44,4.2,3.33,6a64,64,0,0,1,2.81,6.17l1.43,3.62.13.32.8,2.49c.13.42.26.83.4,1.25.22.67.44,1.34.6,1.95l1.27,5.09c.07.32.13.64.19,1s.08.44.11.63l.63,3.47.43,3.3c0,.43.1.85.15,1.28.08.71.17,1.41.23,2.12l.23,4.19c.05.9.1,1.75.07,2.63l0,3.49c0,.24,0,.47,0,.71s0,.58,0,.92l-.12,1.8a125.91,125.91,0,0,1-4.75,27.2,178,178,0,0,1-9.85,26.08l-1.87,4a6.19,6.19,0,0,0-.6,2.08,6.4,6.4,0,0,0,4.53,6.85,6.24,6.24,0,0,0,4.45-.3,8.35,8.35,0,0,0,2.58-2c.46-.51.86-1,1.33-1.59l1.53-2c.94-1.21,1.91-2.46,2.86-3.76,1.36-1.87,2.76-3.86,4.18-5.93a262.32,262.32,0,0,0,14.91-24.8,235.34,235.34,0,0,0,12-26.4c1.72-4.59,3.28-9.23,4.63-13.83l1-3.45c.22-.79.41-1.56.6-2.34.1-.4.19-.8.29-1.17.53-2,1-4.06,1.37-6l.22-1c.2-.89.35-1.77.49-2.61.06-.36.12-.71.19-1.12s.13-.8.2-1.2c.14-.79.28-1.6.39-2.43l.19-1.41c.25-1.91.51-3.88.66-5.82l.16-1.79.3-5.49c0-.83,0-1.66,0-2.48,0-.4,0-.81,0-1.24v-1.81c0-.44,0-.87,0-1.31l0-.58a100.45,100.45,0,0,0-5.1-29.05,89,89,0,0,0-5.87-13.72l-1.69-3.14-.05-.09c-.41-.7-.83-1.39-1.26-2.07l-.62-1c-1-1.63-2-3.12-3-4.57l-1.09-1.55c-.42-.63-.86-1.17-1.24-1.64l-2.23-2.8c-.39-.49-.82-1-1.27-1.52l-2.42-2.7-.38-.42c-.3-.34-.61-.68-.93-1l-3.8-3.8-.08-.07c-.58-.55-1.18-1.08-1.77-1.62l-2.26-2L383,203.6c-.32-.26-.64-.53-1-.83l-4.27-3.15c-.48-.37-1-.72-1.63-1.15l-4.46-3-1.43-.88c-1.61-1-3.22-2-4.84-2.93l-.1-.05-2.17-1.2c-1.38-.77-2.76-1.54-4.16-2.27-4.23-2.21-8.61-4.3-13.2-6.29q1.67-.13,3.35-.2a113,113,0,0,1,17.34.58l4.4.56,4.28.71c3.49.67,6.13,1.26,8.56,1.9a138.35,138.35,0,0,1,16.66,5.47,146.75,146.75,0,0,1,15.88,7.48,170.59,170.59,0,0,1,15.14,9.21c.82.53,1.63,1.11,2.48,1.71l1.09.78.19.13c1.17.82,2.27,1.6,3.37,2.45l2.76,2.08.2.15a9.94,9.94,0,0,0,1,.72,6.37,6.37,0,0,0,9.18-3.46,6.3,6.3,0,0,0,.3-1.25A5.62,5.62,0,0,0,451.89,209.12Z"/></svg>